<?xml version="1.0" encoding="UTF-8" standalone="no"?>
<!DOCTYPE svg PUBLIC "-//W3C//DTD SVG 1.1//EN"
 "http://www.w3.org/Graphics/SVG/1.1/DTD/svg11.dtd">
<!-- Generated by graphviz version 2.43.0 (0)
 -->
<!-- Title: %3 Pages: 1 -->
<svg width="576pt" height="116pt"
 viewBox="0.00 0.00 576.00 116.10" xmlns="http://www.w3.org/2000/svg" xmlns:xlink="http://www.w3.org/1999/xlink">
<g id="graph0" class="graph" transform="scale(0.56 0.56) rotate(0) translate(4 202)">
<title>%3</title>
<polygon fill="white" stroke="transparent" points="-4,4 -4,-202 1018,-202 1018,4 -4,4"/>
<!-- Onboarding -->
<g id="node1" class="node">
<title>Onboarding</title>
<polygon fill="#f0f0f0" stroke="black" points="149,-117 0,-117 0,-81 149,-81 149,-117"/>
<text text-anchor="middle" x="74.5" y="-95.3" font-family="Helvetica,sans-Serif" font-size="14.00">Onboarding / Login</text>
</g>
<!-- Workspace -->
<g id="node2" class="node">
<title>Workspace</title>
<polygon fill="#f0f0f0" stroke="black" points="345,-117 185,-117 185,-81 345,-81 345,-117"/>
<text text-anchor="middle" x="265" y="-95.3" font-family="Helvetica,sans-Serif" font-size="14.00">Workspace Selection</text>
</g>
<!-- Onboarding&#45;&gt;Workspace -->
<g id="edge1" class="edge">
<title>Onboarding&#45;&gt;Workspace</title>
<path fill="none" stroke="black" d="M149.19,-99C157.58,-99 166.19,-99 174.75,-99"/>
<polygon fill="black" stroke="black" points="174.76,-102.5 184.76,-99 174.76,-95.5 174.76,-102.5"/>
</g>
<!-- Main -->
<g id="node3" class="node">
<title>Main</title>
<polygon fill="#f0f0f0" stroke="black" points="564,-117 381,-117 381,-81 564,-81 564,-117"/>
<text text-anchor="middle" x="472.5" y="-95.3" font-family="Helvetica,sans-Serif" font-size="14.00">Main Interface (Tab Bar)</text>
</g>
<!-- Workspace&#45;&gt;Main -->
<g id="edge2" class="edge">
<title>Workspace&#45;&gt;Main</title>
<path fill="none" stroke="black" d="M345.16,-99C353.53,-99 362.12,-99 370.69,-99"/>
<polygon fill="black" stroke="black" points="370.73,-102.5 380.73,-99 370.73,-95.5 370.73,-102.5"/>
</g>
<!-- Sidebar -->
<g id="node4" class="node">
<title>Sidebar</title>
<polygon fill="#f0f0f0" stroke="black" points="750,-198 605,-198 605,-162 750,-162 750,-198"/>
<text text-anchor="middle" x="677.5" y="-176.3" font-family="Helvetica,sans-Serif" font-size="14.00">Sidebar / Page List</text>
</g>
<!-- Main&#45;&gt;Sidebar -->
<g id="edge3" class="edge">
<title>Main&#45;&gt;Sidebar</title>
<path fill="none" stroke="black" d="M513.96,-117.06C538.66,-127.88 570.96,-141.69 600,-153 604.72,-154.84 609.62,-156.69 614.56,-158.52"/>
<polygon fill="black" stroke="black" points="613.48,-161.85 624.07,-162 615.88,-155.28 613.48,-161.85"/>
</g>
<!-- Search -->
<g id="node6" class="node">
<title>Search</title>
<polygon fill="#f0f0f0" stroke="black" points="723.5,-144 631.5,-144 631.5,-108 723.5,-108 723.5,-144"/>
<text text-anchor="middle" x="677.5" y="-122.3" font-family="Helvetica,sans-Serif" font-size="14.00">Search Tab</text>
</g>
<!-- Main&#45;&gt;Search -->
<g id="edge4" class="edge">
<title>Main&#45;&gt;Search</title>
<path fill="none" stroke="black" d="M564.02,-111.04C583.55,-113.64 603.63,-116.31 621.32,-118.66"/>
<polygon fill="black" stroke="black" points="621.07,-122.16 631.44,-120.01 621.99,-115.22 621.07,-122.16"/>
</g>
<!-- Inbox -->
<g id="node7" class="node">
<title>Inbox</title>
<polygon fill="#f0f0f0" stroke="black" points="755,-90 600,-90 600,-54 755,-54 755,-90"/>
<text text-anchor="middle" x="677.5" y="-68.3" font-family="Helvetica,sans-Serif" font-size="14.00">Inbox / Notifications</text>
</g>
<!-- Main&#45;&gt;Inbox -->
<g id="edge5" class="edge">
<title>Main&#45;&gt;Inbox</title>
<path fill="none" stroke="black" d="M564.02,-86.96C572.6,-85.82 581.3,-84.66 589.85,-83.53"/>
<polygon fill="black" stroke="black" points="590.35,-86.99 599.8,-82.2 589.43,-80.05 590.35,-86.99"/>
</g>
<!-- NewPage -->
<g id="node8" class="node">
<title>NewPage</title>
<polygon fill="#f0f0f0" stroke="black" points="719.5,-36 635.5,-36 635.5,0 719.5,0 719.5,-36"/>
<text text-anchor="middle" x="677.5" y="-14.3" font-family="Helvetica,sans-Serif" font-size="14.00">New Page</text>
</g>
<!-- Main&#45;&gt;NewPage -->
<g id="edge6" class="edge">
<title>Main&#45;&gt;NewPage</title>
<path fill="none" stroke="black" d="M513.96,-80.94C538.66,-70.12 570.96,-56.31 600,-45 608.3,-41.77 617.16,-38.49 625.8,-35.38"/>
<polygon fill="black" stroke="black" points="627.18,-38.6 635.43,-31.95 624.83,-32.01 627.18,-38.6"/>
</g>
<!-- Editor -->
<g id="node5" class="node">
<title>Editor</title>
<polygon fill="#f0f0f0" stroke="black" points="886,-117 791,-117 791,-81 886,-81 886,-117"/>
<text text-anchor="middle" x="838.5" y="-95.3" font-family="Helvetica,sans-Serif" font-size="14.00">Page Editor</text>
</g>
<!-- Sidebar&#45;&gt;Editor -->
<g id="edge7" class="edge">
<title>Sidebar&#45;&gt;Editor</title>
<path fill="none" stroke="black" d="M734.72,-161.92C741.65,-159.17 748.56,-156.19 755,-153 772.19,-144.5 790.13,-133.1 804.87,-122.96"/>
<polygon fill="black" stroke="black" points="806.97,-125.77 813.16,-117.17 802.96,-120.03 806.97,-125.77"/>
</g>
<!-- Templates -->
<g id="node9" class="node">
<title>Templates</title>
<polygon fill="#f0f0f0" stroke="black" points="1011,-198 925,-198 925,-162 1011,-162 1011,-198"/>
<text text-anchor="middle" x="968" y="-176.3" font-family="Helvetica,sans-Serif" font-size="14.00">Templates</text>
</g>
<!-- Editor&#45;&gt;Templates -->
<g id="edge11" class="edge">
<title>Editor&#45;&gt;Templates</title>
<path fill="none" stroke="black" d="M866.45,-117.02C882.49,-127.65 903.29,-141.27 922,-153 923.88,-154.18 925.81,-155.38 927.77,-156.58"/>
<polygon fill="black" stroke="black" points="926.04,-159.63 936.4,-161.86 929.69,-153.66 926.04,-159.63"/>
</g>
<!-- Sharing -->
<g id="node10" class="node">
<title>Sharing</title>
<polygon fill="#f0f0f0" stroke="black" points="1003.5,-144 932.5,-144 932.5,-108 1003.5,-108 1003.5,-144"/>
<text text-anchor="middle" x="968" y="-122.3" font-family="Helvetica,sans-Serif" font-size="14.00">Sharing</text>
</g>
<!-- Editor&#45;&gt;Sharing -->
<g id="edge12" class="edge">
<title>Editor&#45;&gt;Sharing</title>
<path fill="none" stroke="black" d="M886.25,-108.9C898.02,-111.39 910.61,-114.06 922.27,-116.53"/>
<polygon fill="black" stroke="black" points="921.73,-119.99 932.24,-118.64 923.18,-113.14 921.73,-119.99"/>
</g>
<!-- Comments -->
<g id="node11" class="node">
<title>Comments</title>
<polygon fill="#f0f0f0" stroke="black" points="1014,-90 922,-90 922,-54 1014,-54 1014,-90"/>
<text text-anchor="middle" x="968" y="-68.3" font-family="Helvetica,sans-Serif" font-size="14.00">Comments</text>
</g>
<!-- Editor&#45;&gt;Comments -->
<g id="edge13" class="edge">
<title>Editor&#45;&gt;Comments</title>
<path fill="none" stroke="black" d="M886.25,-89.1C894.63,-87.33 903.43,-85.46 912.01,-83.64"/>
<polygon fill="black" stroke="black" points="912.9,-87.04 921.95,-81.54 911.44,-80.19 912.9,-87.04"/>
</g>
<!-- Settings -->
<g id="node12" class="node">
<title>Settings</title>
<polygon fill="#f0f0f0" stroke="black" points="1005,-36 931,-36 931,0 1005,0 1005,-36"/>
<text text-anchor="middle" x="968" y="-14.3" font-family="Helvetica,sans-Serif" font-size="14.00">Settings</text>
</g>
<!-- Editor&#45;&gt;Settings -->
<g id="edge14" class="edge">
<title>Editor&#45;&gt;Settings</title>
<path fill="none" stroke="black" d="M866.45,-80.98C882.49,-70.35 903.29,-56.73 922,-45 923.88,-43.82 925.81,-42.62 927.77,-41.42"/>
<polygon fill="black" stroke="black" points="929.69,-44.34 936.4,-36.14 926.04,-38.37 929.69,-44.34"/>
</g>
<!-- Search&#45;&gt;Editor -->
<g id="edge8" class="edge">
<title>Search&#45;&gt;Editor</title>
<path fill="none" stroke="black" d="M723.64,-118.34C741.46,-115.31 762.13,-111.8 780.94,-108.61"/>
<polygon fill="black" stroke="black" points="781.59,-112.04 790.87,-106.92 780.42,-105.14 781.59,-112.04"/>
</g>
<!-- Inbox&#45;&gt;Editor -->
<g id="edge9" class="edge">
<title>Inbox&#45;&gt;Editor</title>
<path fill="none" stroke="black" d="M755.21,-85.03C763.9,-86.5 772.64,-87.99 781.01,-89.41"/>
<polygon fill="black" stroke="black" points="780.55,-92.88 791,-91.1 781.73,-85.98 780.55,-92.88"/>
</g>
<!-- NewPage&#45;&gt;Editor -->
<g id="edge10" class="edge">
<title>NewPage&#45;&gt;Editor</title>
<path fill="none" stroke="black" d="M719.74,-30.52C731.38,-34.6 743.89,-39.5 755,-45 772.19,-53.5 790.13,-64.9 804.87,-75.04"/>
<polygon fill="black" stroke="black" points="802.96,-77.97 813.16,-80.83 806.97,-72.23 802.96,-77.97"/>
</g>
</g>
</svg>
